<?xml version="1.0" encoding="UTF-8" standalone="no"?>
<!-- Generator: Adobe Illustrator 22.1.0, SVG Export Plug-In . SVG Version: 6.00 Build 0)  -->

<svg
   xmlns:dc="http://purl.org/dc/elements/1.1/"
   xmlns:cc="http://creativecommons.org/ns#"
   xmlns:rdf="http://www.w3.org/1999/02/22-rdf-syntax-ns#"
   xmlns:svg="http://www.w3.org/2000/svg"
   xmlns="http://www.w3.org/2000/svg"
   xmlns:sodipodi="http://sodipodi.sourceforge.net/DTD/sodipodi-0.dtd"
   xmlns:inkscape="http://www.inkscape.org/namespaces/inkscape"
   version="1.1"
   id="Шар_1"
   x="0px"
   y="0px"
   viewBox="0 0 382 393"
   style="enable-background:new 0 0 382 393;"
   xml:space="preserve"
   sodipodi:docname="whitelogo.svg"
   inkscape:version="0.92.4 (5da689c313, 2019-01-14)"><metadata
   id="metadata235"><rdf:RDF><cc:Work
       rdf:about=""><dc:format>image/svg+xml</dc:format><dc:type
         rdf:resource="http://purl.org/dc/dcmitype/StillImage" /><dc:title></dc:title></cc:Work></rdf:RDF></metadata><defs
   id="defs233" /><sodipodi:namedview
   pagecolor="#ffffff"
   bordercolor="#666666"
   borderopacity="1"
   objecttolerance="10"
   gridtolerance="10"
   guidetolerance="10"
   inkscape:pageopacity="0"
   inkscape:pageshadow="2"
   inkscape:window-width="772"
   inkscape:window-height="480"
   id="namedview231"
   showgrid="false"
   inkscape:zoom="0.60050891"
   inkscape:cx="191"
   inkscape:cy="196.5"
   inkscape:window-x="64"
   inkscape:window-y="27"
   inkscape:window-maximized="0"
   inkscape:current-layer="Шар_1" />
<style
   type="text/css"
   id="style2">
	.st0{fill:#FFFFFF;}
	.st1{fill:#231F20;}
	.st2{fill:none;stroke:#231F20;stroke-width:0;stroke-linecap:round;stroke-linejoin:round;}
	.st3{fill:none;}
	.st4{fill:none;stroke:#3F3B3C;stroke-linecap:round;stroke-miterlimit:10;}
	.st5{fill:none;stroke:#000000;stroke-miterlimit:10;}
	.st6{fill:none;stroke:#000000;stroke-linecap:round;stroke-miterlimit:10;}
</style>
<g
   id="g96"
   style="fill:#ffffff">
	<g
   id="g94"
   style="fill:#ffffff">
		<g
   id="g92"
   style="fill:#ffffff">
			<g
   id="g90"
   style="fill:#ffffff">
				<path
   class="st0"
   d="M48.7,297.1c-2.1-1.9-4.7-5.4-6.7-8.5c-1.9-3.1-3-5.9-2.1-6.3c-0.9,0.4-1.3,0.6-2.2-0.2      c-0.4-0.4-1-0.9-1.8-1.9c-0.8-0.9-1.7-2.2-2.9-3.9c0.6-0.2,0-1.9-1-4.1c-1-2.2-2.3-4.9-3.3-7.1c0.4,2,1,4.2,2.2,7.2      c0.6,1.5,1.4,3.1,2.2,5c0.4,0.9,0.9,1.9,1.4,3c0.5,1.1,1.1,2.2,1.8,3.4c1.8,1.8,3.5,4.4,5.4,7.2c0.9,1.4,1.9,3,2.8,4.5      c0.9,1.6,2,3.1,3,4.7c1,1.6,2,3.2,3.1,4.6c1.1,1.5,2.1,2.9,3.2,4.2c2.1,2.6,4.3,4.6,6.4,5.9c-0.9-1.4-1.8-2.8-2.7-4.2      c-0.9-1.4-1.6-3-2.5-4.5c-0.9-1.5-1.8-3-2.8-4.5C51.1,300.1,50,298.6,48.7,297.1z"
   id="path4"
   style="fill:#ffffff" />
				<path
   class="st0"
   d="M36.3,255.8l-1.2-1l1.7,3.6c0.6,1.2,1.3,2.4,1.9,3.6c1.3,2.3,2.5,4.7,3.9,7      C40.5,266.4,35.5,256.6,36.3,255.8z"
   id="path6"
   style="fill:#ffffff" />
				<path
   class="st1"
   d="M22.5,205.9c1.5,1.3,1.8-6.9,3.1-6.8c-1.5,0.2-1.6-3-1.5-7.1c0-2,0.3-4.3,0.5-6.5c0.2-2.2,0.3-4.3,0.4-6.1      l-1.9-3c-0.3,0.8-0.5,1.8-0.7,3c-0.3,1.1-0.4,2.4-0.5,3.9c-0.2,2.8-0.5,6.1-0.4,9.6c0,1.8,0,3.6,0.1,5.5      c0.1,1.9,0.3,3.8,0.4,5.7l0.2,2.9c0.1,1,0.2,1.9,0.3,2.8c0.2,1.9,0.4,3.8,0.6,5.6l-0.2-4.8C22.6,209.1,22.5,207.5,22.5,205.9z"
   id="path8"
   style="fill:#ffffff" />
				<path
   class="st0"
   d="M23.6,192.7c-0.5-1.5-1-3.1-1.4-4.6c0.1,1.9,0.4,5.2,0.5,6.8C22.9,196.6,23.2,196.8,23.6,192.7z"
   id="path10"
   style="fill:#ffffff" />
				<path
   class="st0"
   d="M16.3,203c0.6,11.9,0.5-7.2,1.7,4.7C17.3,203.7,16.9,199.1,16.3,203z"
   id="path12"
   style="fill:#ffffff" />
				<path
   class="st1"
   d="M24.1,154.4c-0.4,2-0.6,4.1-0.9,6.1l-0.4,3.1c-0.1,1-0.2,2-0.3,3.1c-0.2,2-0.4,4.1-0.5,6.1l-0.3,6.1      c0.6-3.4,1.1-6.7,2-10C23.6,164.1,23.9,159.3,24.1,154.4z"
   id="path14"
   style="fill:#ffffff" />
				<path
   class="st1"
   d="M29,154.1c-0.2,0.8-0.5,1.6-0.7,2.4c-0.2,0.8-0.5,1.5-0.7,2c-0.5,1-0.9,1-0.8-1.3c0.4-1,0.8-2,1.1-2.9      c0.3-0.9,0.6-1.9,0.8-2.8c0.5-1.8,0.7-3.5,1.1-5.2c0.8-3.3,1.3-6.7,3.4-10.3l-0.9,3.8l-0.7,3.8c0.5-0.1,0.9-1.2,1.3-2.7      c0.4-1.5,0.9-3.4,1.3-5.2c0.9-3.7,2.2-7.1,3.6-6.4c0.8-5.2-0.5-3.7-1.7-2.4c-1.1,1.3-2.1,2.2-0.3-4.4c-1.1,3-2.1,5.9-3.1,8.6      c-0.9,2.7-1.8,5.3-2.8,7.8c-0.8,2.5-1.7,5-2.5,7.5c-0.8,2.5-1.5,5-2.3,7.7c0.7-1.5,1.1-2.5,1.5-3.7c0.4-1.2,0.8-2.6,1.7-4.6      c-0.6,1.8-0.9,3.9-1.3,6.1c-0.2,1.1-0.4,2.2-0.6,3.3c-0.2,1.1-0.3,2.3-0.4,3.4c-0.1,1.2-0.3,2.3-0.4,3.5      c-0.1,1.2-0.3,2.3-0.4,3.5c-0.2,2.3-0.4,4.6-0.6,6.9c1.4-2.3,1.8-5.1,2.1-8.2c0.3-1.6,0.5-3.2,0.8-4.9      C27.8,157.6,28.2,155.8,29,154.1z"
   id="path16"
   style="fill:#ffffff" />
				<path
   class="st1"
   d="M41.7,118c0.4-0.9,0.9-1.9,1.5-2.9c0.5-1,1-2,1.6-3.1c0.5-1,1-2.1,1.6-3.2c0.6-1,1.1-2.1,1.6-3.1      c1.9-4,3.4-7.4,3-9c-1.5,1.6-2.6,3-3.4,4.2c-0.7,1.2-1.2,2.3-1.5,3.2c-0.6,1.9-0.6,3.5-1.1,5.4c-0.7,1-2.1,3.3-3.2,5      c-1.1,1.6-1.9,2.6-1.8,0.8C40.9,114.5,39.4,121,41.7,118z"
   id="path18"
   style="fill:#ffffff" />
				<path
   class="st1"
   d="M58.2,90.7c0.3-1,0.5-2,0.8-3.1l1-3c-0.7,1.1-1.4,2.2-2,3.3l-1.5-0.5c0,0.4,0.1,1.6-0.4,3.5      c-0.2,1-0.6,2.1-1.2,3.4c-0.6,1.3-1.4,2.9-2.5,4.5c1.6-1.5,2.3-2.7,3-4C56.1,93.6,56.7,92.3,58.2,90.7z"
   id="path20"
   style="fill:#ffffff" />
				<path
   class="st1"
   d="M50.7,82.7c4.4-4,5.9-7.1,9.9-12.6c-1.5,1.8-3.2,3.8-4.8,5.8c-1.6,2.1-3.1,4.2-4.6,6.1      c-1.3,2-2.5,3.9-3.5,5.4c-0.5,0.8-0.9,1.4-1.2,2c-0.3,0.6-0.5,1.1-0.6,1.4l0.1-0.8c0,0-0.9,2-2.1,4.8c-1.2,2.7-2.4,6.3-3.3,9.3      c0.8-2.2,2-4.8,3.5-7.2c1.5-2.4,3-4.9,4.4-7C51.4,85.9,53.1,82.8,50.7,82.7z"
   id="path22"
   style="fill:#ffffff" />
				<path
   class="st1"
   d="M43.8,92.5l1.3-3.2c0.4-1.1,1-2.1,1.4-3.2c-0.5,1.1-1,2.1-1.4,3.2L43.8,92.5z"
   id="path24"
   style="fill:#ffffff" />
				<path
   class="st1"
   d="M73.9,71c-1.5,1.4-3,2.8-4.5,4.3L65,79.8l2.5-1.9c1-1.2,2-2.4,3.1-3.5L73.9,71z"
   id="path26"
   style="fill:#ffffff" />
				<path
   class="st1"
   d="M58.9,78c3.4-3.9,2.2-3.1,0.9-2.2c-1.3,0.8-2.7,1.7,0.5-2c0.4-0.5,0-0.1-0.8,0.8c-0.4,0.5-0.9,1.1-1.5,1.8      c-0.5,0.7-1.1,1.5-1.7,2.3c-1.2,1.7-2.4,3.4-3.3,4.8c-0.8,1.5-1.4,2.6-1.3,2.9C53.5,84.6,56.9,77.8,58.9,78z"
   id="path28"
   style="fill:#ffffff" />
				<path
   class="st1"
   d="M79.8,65.4l1.6-2.1c0.5-0.7,1.1-1.3,1.7-2l3.4-4l-3.4,4c-0.6,0.7-1.1,1.3-1.7,2L79.8,65.4z"
   id="path30"
   style="fill:#ffffff" />
				<path
   class="st1"
   d="M100.2,50l1-2.1c2.2-1.2,4.5-2.5,6.9-4c1.2-0.8,2.4-1.4,3.6-2.1c1.2-0.7,2.4-1.4,3.6-2.1      c1.2-0.7,2.4-1.3,3.6-1.8c1.2-0.6,2.4-1.1,3.5-1.5c2.2-0.9,4.4-1.5,6.3-1.6c-2.1-0.6,2.6-4.4-5.6-1.2c-0.9,1.3-3.7,2.7-2.8,3.3      c-1.7,0.7-2.5,0.8-3.2,0.7c-0.7,0-1.2-0.2-2.4,0.3c-2.5,2.2-6.1,4.2-9.3,6.4c-1.6,1.1-3.3,2.1-4.7,3.2c-1.4,1.1-2.6,2.1-3.5,3.1      c1.9-1.7,2.6-1.8,4.2-2.8c-1.9,2-3.7,3.3-5.2,4.2c-1.5,0.9-2.8,1.6-3.9,2.1c-1.1,0.5-2.1,1-2.9,1.7c-0.8,0.7-1.4,1.5-1.7,3      C89.8,55.6,96.3,53.3,100.2,50z"
   id="path32"
   style="fill:#ffffff" />
				<path
   class="st1"
   d="M94.9,44.1l-3.8,2.5c-1.3,0.8-2.5,1.8-3.7,2.6c1.2-3.1,8.9-6.7,9.4-8.7c-0.9-0.4-8.7,4.6-6.3,2.1      c0.3,0.9-0.2,1.8-1,2.7c-0.8,0.9-1.8,1.8-2.7,2.6c-1.8,1.6-3,2.7,0.1,2.8c-1.1,1-2,1.7-2.8,2.2c-0.7,0.6-1.3,1-1.8,1.3      c-0.9,0.6-1.5,0.7-2,0.8c-0.6,0.1-1.2,0.2-2.2,0.8c-0.5,0.3-1.1,0.7-1.9,1.4c-0.8,0.7-1.7,1.5-2.8,2.6l-1.2,3.8      c2.3-2.5,4.2-4.6,6-6.1c1.8-1.6,3.4-2.8,5-4.1c1.6-1.3,3.3-2.4,5.1-3.9c0.9-0.7,1.9-1.6,3-2.4C92.4,46.2,93.6,45.2,94.9,44.1z"
   id="path34"
   style="fill:#ffffff" />
				<path
   class="st1"
   d="M125.7,27.3l4.5-0.7l-2.8-0.6c9.3-4.1,17.5-5.1,24.6-5.4c1.8-0.1,3.5-0.1,5.1-0.2c1.7,0,3.3,0,4.8-0.1      c1.6-0.1,3.1-0.2,4.5-0.4c1.5-0.1,2.9-0.4,4.4-0.7c7.1-2.4,14.4-2.7,21.6-2.6c7.2,0.4,14.4,1.1,21.9,1.7c7.5-0.8-7-1.5-7.7-2.3      c0.6-0.7,1.3-0.9,2.1-0.9c0.4,0,0.9,0.1,1.3,0.2c0.5,0.1,0.9,0.3,1.4,0.4c1.9,0.6,4,1.3,5.9,0.3c0.6-1-3.3-1.9-8.1-2.7      c-2.5-0.3-5.1-0.6-7.6-0.9c-2.5-0.2-4.8-0.4-6.5-0.7c-2.9,0.1-4.3,0.5-5.2,0.9c-0.9,0.4-1.3,0.9-2.1,1.5c-0.8-0.5-2.6-0.8-4.5-1      c-1.9-0.2-3.7-0.3-4.5-0.8c-1.5,0.4-2.9,0.7-4.2,0.9c-1.3,0.3-2.6,0.5-3.8,0.7c-1.2,0.2-2.4,0.3-3.6,0.5      c-0.6,0.1-1.2,0.1-1.7,0.2c-0.6,0.1-1.1,0.2-1.7,0.2c-2.3,0.3-4.6,0.6-7,1.2c-2.4,0.6-4.9,1.4-7.7,2.6c-4-0.5,8.6-2.7,4.7-1.8      l-6.3,1.8l0.7,0.1c-4,2.1-10,4-15.6,6c-2.8,0.9-5.5,1.9-7.9,2.7c-1.2,0.4-2.3,0.7-3.3,1c-1,0.3-1.8,0.6-2.5,0.8      c2.1-0.8,4.1-1.1,4.9-1c0.8,0.1,0.5,0.8-1.8,2.1l-4.7,0.3c-1.5,1.3-3,2.5-4.4,3.8l-4.3,4c1.6-1.4,3.5-2.7,5.4-3.7      c1.9-1,3.9-1.8,5.6-2.5c1.7-0.8,3.2-1.4,4.4-2.1C124.9,29,125.6,28.2,125.7,27.3z"
   id="path36"
   style="fill:#ffffff" />
				<path
   class="st1"
   d="M112.8,29.9c-6.3,2.9-5.6,3.4-5,3.8c0.3,0.2,0.5,0.5-0.1,1.1c-0.7,0.6-2.3,1.5-5.5,3.4      c1.1-0.7,2.2-1.5,3.3-2.1l3.4-2l3.4-2c1.1-0.7,2.3-1.2,3.5-1.9L112.8,29.9z"
   id="path38"
   style="fill:#ffffff" />
				<path
   class="st0"
   d="M175.9,14.4l6.7,0.5c-1.9-1.1-5.4-0.5-7.5,0c-0.5,0.1-1,0.3-1.3,0.4c-0.3,0.1-0.5,0.2-0.5,0.2      S174.2,15.1,175.9,14.4z"
   id="path40"
   style="fill:#ffffff" />
				<path
   class="st0"
   d="M200.4,12.9l-3.5,2.4c2.1-0.5,4.1-1,6.2-1.3C202.3,13.6,201.3,13.2,200.4,12.9z"
   id="path42"
   style="fill:#ffffff" />
				<path
   class="st1"
   d="M222.4,17.2c2.5-0.3,2.4-0.8,0.8-1.4c-1.5-0.6-4.4-1.2-7.3-1.2c1.3,0.1,2.4,0.3,3.4,0.5      c0.9,0.2,1.7,0.5,2.3,0.8C222.7,16.4,223,16.9,222.4,17.2z"
   id="path44"
   style="fill:#ffffff" />
				<path
   class="st0"
   d="M256.3,29.7c-5.1-1.7-2.9-0.8-0.4,0.5c2.5,1.3,5.2,2.9,1.2,2.7c0.4-0.1,1.1-0.2,1.7-0.3      c0.6,0,1.2-0.1,1.5-0.3C260.9,32,260.4,31.2,256.3,29.7z"
   id="path46"
   style="fill:#ffffff" />
				<path
   class="st1"
   d="M285.3,49c-3.5-1.5-4.7-2.6-4.8-3.3C282.9,47,284.7,48.2,285.3,49z"
   id="path48"
   style="fill:#ffffff" />
				<path
   class="st1"
   d="M157.3,23.6c-1.2,0.3-2.5,0.7-3.7,0.9C154.8,24.2,156,23.9,157.3,23.6z"
   id="path50"
   style="fill:#ffffff" />
				<path
   class="st1"
   d="M159.7,23.1c-0.8,0.2-1.6,0.3-2.4,0.5C158.2,23.3,159,23.2,159.7,23.1z"
   id="path52"
   style="fill:#ffffff" />
				<path
   class="st1"
   d="M239,28.3C239,28.3,239,28.3,239,28.3c-0.3-0.1-0.5-0.3-0.8-0.4L239,28.3z"
   id="path54"
   style="fill:#ffffff" />
				<path
   class="st1"
   d="M28.3,224.8c0.6,2.1,1,3.7,1.2,5C29.1,228.1,28.7,226.4,28.3,224.8C28.2,224.8,28.3,224.8,28.3,224.8z"
   id="path56"
   style="fill:#ffffff" />
				<path
   class="st1"
   d="M26.4,231.3c-0.9-2.2-1.2-3.9-1.3-5.5c-0.1-1.6,0.2-3.1,0.4-4.7c0.2-1.6,0.4-3.4,0.3-5.7      c0-2.3-0.2-5.1-0.8-8.7c0.5,2.9,1,5.9,1.5,9c0.6,3,1.3,6.1,1.9,9.2c-0.2,4.3-0.9,2.8-1.4,1.8C26.3,225.5,26,224.9,26.4,231.3z"
   id="path58"
   style="fill:#ffffff" />
				<path
   class="st1"
   d="M39,109.2c0.1-0.2,0.1-0.3,0.2-0.5C39.5,107.9,39.3,108.3,39,109.2z"
   id="path60"
   style="fill:#ffffff" />
				<path
   class="st0"
   d="M337.3,294l-0.5-0.5c1.8-2,3.5-4.1,5.3-6.2C340.6,289.6,339,291.9,337.3,294z"
   id="path62"
   style="fill:#ffffff" />
				<path
   class="st0"
   d="M335.7,294.2c-1.6,1.7-3.1,3.4-4.7,5l-4.9,4.8c8.8-10.2,16.4-21.3,22.7-33.1c6.2-11.9,11.1-24.4,14.5-37.4      l0.1,2.7c0.2-0.1,0,0.8-0.4,2.5c-0.2,0.9-0.5,1.9-0.8,3.1c-0.4,1.2-0.8,2.5-1.3,4c-1.9,5.9-5.1,13.6-8.9,21      C344.8,281.9,334.6,294.9,335.7,294.2z"
   id="path64"
   style="fill:#ffffff" />
				<path
   class="st0"
   d="M334.1,297.9c-0.7,2-1.6,3.6-2.7,4.9c-1.1,1.4-2.3,2.6-3.6,3.8c-1.3,1.2-2.7,2.4-4.1,3.8      c-0.7,0.7-1.4,1.5-2.1,2.3c-0.7,0.8-1.4,1.7-2.1,2.8c0.9-1.4,1.8-2.6,2.6-3.9c0.8-1.3,1.5-2.5,2.3-3.6c0.8-1.2,1.6-2.2,2.5-3.3      c0.9-1.1,1.8-2.2,3-3.3C331.3,300.4,332.8,299.2,334.1,297.9z"
   id="path66"
   style="fill:#ffffff" />
				<path
   class="st2"
   d="M319.4,321.8c-1.8,1.3-3.6,3.1-5.1,4.7c-1.5,1.6-3,3-4.1,3.6c0-0.6,0.4-1.3,1-2c0.6-0.7,1.5-1.4,2.4-2.2      C315.5,324.4,317.9,322.9,319.4,321.8z"
   id="path68"
   style="fill:#ffffff" />
				<path
   class="st1"
   d="M315.3,335.7c-0.5,0.5-1.1,0.9-1.7,1.4c0.6-0.6,1.1-1.2,1.5-1.7L315.3,335.7z"
   id="path70"
   style="fill:#ffffff" />
				<path
   class="st1"
   d="M315.1,335.4l-0.5-0.8C316,333.9,315.9,334.4,315.1,335.4z"
   id="path72"
   style="fill:#ffffff" />
				<path
   class="st1"
   d="M313.7,337.1c-0.7,0.7-1.4,1.5-2,2.2c-0.6,0.7-1.3,1.4-1.6,1.9l1.7-1.1c-2,1.8-5.5,5.4-6.9,5.7      c4.4-3.1,4.1-3.7,3.5-4.8c-2.4,1.7-4.7,3.4-7.2,5c-0.2-1.7,1.4-2.7,3.8-4C307.3,340.8,310.6,339.6,313.7,337.1z"
   id="path74"
   style="fill:#ffffff" />
				<path
   class="st2"
   d="M291.5,353.6c2.2-2.1,4.5-4.1,6.6-6.3c1.5,0,0.6,1.2-1.1,2.6C295.4,351.3,292.9,352.7,291.5,353.6z"
   id="path76"
   style="fill:#ffffff" />
				<path
   class="st1"
   d="M279,358.4c1.6-1.4,9.2-5.5,4.3-3.6c1.1-1,2.6-1.7,4.1-2.6C282.5,355.4,288.3,354.5,279,358.4z"
   id="path78"
   style="fill:#ffffff" />
				<path
   class="st1"
   d="M287.4,352.2c0.6-0.4,1.2-0.8,2.1-1.4C288.8,351.3,288.1,351.7,287.4,352.2z"
   id="path80"
   style="fill:#ffffff" />
				<path
   class="st2"
   d="M347.1,284.1c-0.8,0.7-0.9,0.6-0.9,0.1L347.1,284.1z"
   id="path82"
   style="fill:#ffffff" />
				<path
   class="st1"
   d="M262.1,364.3c-1,0.4-2,0.8-3.1,1.2c0.9-0.3,1.7-0.7,2.4-1.1C261.7,364.4,261.9,364.3,262.1,364.3z"
   id="path84"
   style="fill:#ffffff" />
				<path
   class="st1"
   d="M360,142.6c0.4,2.6,0.9,5.2,1.3,7.9c0.4,2.7,0.8,5.4,1.2,8.2c0.4,2.9,0.8,5.9,1.3,9.1      c0.2,1.6,0.4,3.3,0.6,5.1c0.2,1.8,0.5,3.6,0.7,5.5c2.2-0.5,0.9,6.2,3.2,7c0-2-0.1-2.6-0.1-2c0,0.3,0.1,0.8,0.1,1.6      c0,0.8,0,1.8,0.1,3c0,1.2,0.1,2.6,0.1,4.1c0.1,1.5-0.1,3.2-0.1,4.9c-0.1,1.8,0,3.6-0.2,5.5c-0.1,1.9-0.3,3.8-0.4,5.8      c-0.7,7.8-1.8,15.7-2.8,20.8c-0.9,5.1-1.3,7.5-0.2,4.5l-0.1-4l1.3,4.5c-1.4,3.7-3.2,8.1-5,12c-1.7,4-3.4,7.6-3.7,10.4      c-0.2,0.1,0.1-0.7,0.7-2.4c0.6-1.6,1.6-4,2.5-6.9c0.5-1.5,1-3,1.6-4.7c0.5-1.7,1-3.5,1.6-5.4c0.3-0.9,0.5-1.9,0.8-2.8      c0.2-1,0.5-2,0.7-2.9c0.5-2,1-4,1.4-6c0.4-2,0.8-4.1,1.2-6.1c0.4-2,0.6-4,0.9-5.9c0.6-3.8,0.8-7.4,1.1-10.4      c0.2-1.5,0.2-2.9,0.2-4c0-1.2,0.1-2.2,0.1-3c0-1.6,0-2.4-0.1-2.1c0.4-0.7,0.6,0.1,0.8,2.2c0.1,2.1,0.3,5.5,0,9.6      c-0.4,8.4-2,20.1-5.1,31.8c-3.1,11.7-7.6,23.3-11.8,31.8c-2,4.3-4,7.8-5.3,10.5c-1.4,2.6-2.3,4.2-2.3,4.5l-1.8,0.2      c-1.3,2.8-2.6,5.3-3.8,7.7c-1.1,2.4-2.3,4.6-3.5,6.8c-0.6,1.1-1.1,2.2-1.7,3.2c-0.6,1-1.3,2.1-1.9,3.1c-1.3,2.1-2.6,4.2-4.3,6.3      l-2.9,0.6c1.4-1.3,2.5-2.4,3.4-3.5c0.9-1.1,1.6-2.1,2.3-3.1c1.3-2.1,2.6-4.2,4.6-7.6c-1,1.4-1.9,2.6-2.8,3.6      c-0.9,1.1-1.7,2-2.4,2.9c-1.5,1.7-2.8,3.1-4.1,4.3c-1.3,1.3-2.5,2.4-3.8,3.8c-1.3,1.4-2.8,2.8-4.6,4.6c1.8,1.3,7.1-5.4-1.4,4.5      c-3.4,1.8,1.3-5.7-6.9,2.4c-5.5,4.2-7.3,6.5-8.9,8.6c-1.6,2.1-2.9,4.3-8,7.8c2.4-1.3,4.9-2.6,7.3-4.1c-3.5,2.8-10.4,8-14.8,9.2      c4.6-2.4,14.6-11,12.9-12.6c-1.9,1.8-5.4,4-8.8,6.2c-1.7,1.1-3.5,2-5,2.9c-1.5,0.9-2.9,1.7-3.8,2.3c0.5-0.9,1-1.8,1.5-2.7      c-2.4,0.7-4,1.7-5.7,2.9c-1.7,1.2-3.5,2.5-6.6,3.3c-4.8,3.4,4.2,0.4,1.5,2.4c-0.7,0-3.6,1.2-6.8,2.5c-3.2,1.3-6.7,2.9-8.3,4.1      c1.9,1,4.9-0.7,8.4-2.5c1.8-0.9,3.6-2,5.5-2.8c1.9-0.9,3.9-1.4,5.8-1.7c-1.6,0.8-3.3,1.5-4.9,2.2l-5,2.2      c-1.2,1.4-0.8,1.7,0.4,1.3c1.2-0.4,3.2-1.4,5.4-2.5c1.1-0.6,2.1-1.1,3.1-1.6c1-0.6,1.9-1.1,2.7-1.4c1.5-0.7,2.4-0.9,1.9,0.1      c-0.7,0.9-1.5,1.6-2.3,2.2c-0.8,0.6-1.8,1.2-2.7,1.6c-1.9,0.9-4,1.5-6,2.1c-2,0.7-4.1,1.1-5.9,2c-1.9,0.8-3.5,2.1-4.9,3.7      c1.3-0.3,3.1-0.9,5.2-1.7c1-0.4,2.1-0.8,3.2-1.2c1.1-0.4,2.2-0.8,3.2-1.3c4.1-1.8,7.5-3.1,6.8-2.1c-2.9,0.8-5,2.1-7.2,3.8      c-2.3,1.6-4.8,3.4-8.4,5.2c-3.2,0.7-6.4,1.5-9.6,2.2c-1.8,1.1-1.9,1.4-1.1,1.4c0.4,0,1-0.1,1.7-0.2c0.7-0.1,1.5-0.3,2.3-0.5      c-1.8,0.5-3.7,0.9-5.7,1.5c-2,0.5-4.1,1.2-6.4,1.8c-2.2,0.6-4.6,1.2-7,1.9c-1.2,0.4-2.4,0.6-3.7,0.9c-1.3,0.3-2.5,0.5-3.8,0.8      c-10.2,2.1-21.5,3.2-31.7,2.1c-12,0.3-1.5,1.4-7.1,2.4c-1.6-0.6-3.5-1-5.5-1.2c-1-0.1-2.1-0.2-3.1-0.3c-1.1-0.1-2.1-0.2-3.2-0.3      c-2.2-0.2-4.4-0.3-6.4-0.5c-2.1-0.2-4-0.5-5.6-0.8c-1-0.2-2.4,0-3.5,0.3c-1,0.3-1.6,0.9-0.7,1.5c2.8,0.4,5.7,0.6,8.6,0.9      c2.8,0.3,5.7,0.3,8.6,0.5c-0.5,0.5-0.1,1.2,1.1,1.9c1.2,0.6,3.4,1.1,6.5,1.2c-1-1,0-1.3,2.1-1.2c2.1,0.1,5.3,0.4,8.7,0.7      c1.7,0.2,3.4,0.2,5.1,0.2c1.7,0,3.3,0,4.7-0.1c2.8-0.3,4.8-0.9,5-2l-0.1,2l5.5-0.9l5.4-1.2c3.6-0.7,7.2-1.8,10.7-2.7l-0.7-0.1      c0,0.2,1.1-0.1,3-0.6c1.8-0.6,4.4-1.5,7.3-2.4c1.5-0.4,3-1.1,4.6-1.7c1.6-0.6,3.2-1.2,4.8-1.8c3.2-1.2,6.3-2.5,9.2-3.4      c-0.7,0.5-2.5,1.2-4.5,2.1c-1,0.4-2.1,0.9-3.1,1.3c-1.1,0.4-2.1,0.8-3.1,1.2c-3.7,1.4-5.7,2.4,0.4,1.5c-1,0.5-2.2,1-3.4,1.5      c-1.3,0.5-2.6,1-4.1,1.4c-1.5,0.4-3,0.8-4.7,1.2c-1.6,0.4-3.3,0.9-5.2,1.2c-3.6,0.6-7.4,1.5-11.4,2c-2,0.3-4,0.6-6,0.9      c-2,0.2-4.1,0.5-6.2,0.8l3.4,1c-8.7,1.9-19.1,2-29.5,0.9c-10.4-1.1-20.9-3.2-30.3-5.4l6-0.4c-3.2-1.1-6.9-2.4-10.4-3.8      c-1.8-0.7-3.6-1.2-5.3-1.7c-1.7-0.5-3.4-0.9-5-1c7.8,2.6,3.5,2.2,1.8,2.4c-2.7-0.7-5.7-1.5-8.8-2.8c-1.6-0.6-3.2-1.2-4.8-1.9      c-1.6-0.7-3.3-1.5-4.9-2.3c-6.7-3-13.5-7-20.2-10.6c0,0,0.8,0,0.4-0.5c-2.3-1.3-4.6-2.6-7-3.9c-1.2-0.6-2.3-1.3-3.4-2l-3.4-2.1      c-1.5-1.2-2.7-2.2-3.7-3.2c-1-1-1.8-1.9-2.5-2.7c-1.4-1.7-2.5-3.2-3.8-5.2c-1.1-0.8-2.9-2.3-4.3-3.4c-1.4-1-2.3-1.6-1.7-0.3      c1,1.1,2.1,2.1,2.9,2.7c-3.7-1.9-4.6-3-5.6-4.3c-0.5-0.7-1.1-1.4-2-2.3c-0.9-0.9-2.2-2.1-4.1-3.7c1.6,1.1,2.4,1.5,2.8,1.3      c0.3-0.1,0.2-0.7-0.1-1.4c-0.6-1.5-1.7-3.5-0.8-3.8c-2.1-2-3.3-2.9-4-3.1c-0.7-0.3-0.8,0.1-0.8,0.7c0.1,1.2,1.1,3.4,0.4,3.1      c-0.6-0.7-1.1-1.3-1.6-2c-0.5-0.6-0.9-1.3-1.3-1.8c-0.8-1.2-1.6-2.2-2.2-3.2c-0.7-1-1.3-1.9-1.8-2.8c-0.5-0.9-1-1.8-1.6-2.7      c-1-1.7-2.1-3.5-3.4-5.5c-1.2-2.1-2.7-4.4-4.6-7.3c-0.7,0,0.6,2.1,2.1,4.5c0.7,1.2,1.5,2.4,2,3.5c0.6,1,1,1.9,1,2.3      c-1.2-1.7-2.4-3.5-3.4-4.9c-1.1-1.4-2-2.5-2.3-2.7l2.2,3.8c0.7,1.3,1.4,2.6,2.3,3.8c-1.1-1.5-1.9-3.2-2.9-4.7l-2.9-4.7      c-0.9-1.6-1.8-3.2-2.8-4.8c-0.9-1.6-1.9-3.2-2.8-4.8c-1.8-3.3-3.7-6.5-5.5-10c-0.9-1.7-1.8-3.4-2.8-5.2      c-0.9-1.8-1.8-3.6-2.7-5.4l0,1.4c-0.7-1.6-1.4-3.1-2-4.7l-1.8-4.8l3.1,2.7c-1.2-2.5-2-5.2-2.7-7.6c-0.6-2.4-1.3-4.5-2.5-5.7      l0.5,2l-1.4-3.2l-0.7-1.6l-0.6-1.6l0.9,1.6l1,1.5l2,3.1c-0.2-1.1-0.6-2.1-1-3.3c-0.4-1.1-0.8-2.3-1.3-3.5      c-0.9-2.4-2.1-5-3.2-7.7c-1-2.8-2.2-5.7-3.1-8.9c-0.8-3.2-1.7-6.6-2.1-10.1c0.6-0.9,1,0.3,1.7,2.4c0.6,2.1,1.2,5.3,2,8.6      c0.9,3.3,1.8,6.7,2.8,9.3c1.1,2.6,2.1,4.4,3,4.6c-0.2-1.2-0.4-2.5-0.7-3.9c-0.1-0.7-0.3-1.4-0.4-2.2c-0.1-0.7-0.3-1.5-0.4-2.2      c-0.5-2.9-1.2-5.5-1.9-6.7c-0.8,0.7-0.1,4,0.6,7.3c-2.2-5.8-3.5-13.5-4.1-20.6c-0.2-1.8-0.4-3.5-0.6-5.2      c-0.1-1.7-0.3-3.3-0.5-4.8c-0.2-1.5-0.4-2.9-0.7-4.2c-0.3-1.3-0.5-2.4-0.9-3.4c-0.4,3.1-0.4,6.3-0.6,9.4      c-0.2-2.7-0.3-5.2-0.1-7.5c0.2-2.3,0.5-4.3,0.8-6.1c0.2-1.8,0.6-3.3,0.7-4.7c0.1-1.3,0-2.5-0.5-3.4c1,2.9,1.9,5.8,3.1,8.6      c-0.5-2.7-0.6-5.6-0.7-8.7c-0.2-3,0-6.1,0.1-9.2c0.1-3.1,0.4-6.1,0.6-9.1c0.2-2.9,0.5-5.7,0.7-8.3c-0.5-0.2-0.9,0.7-1.2,2      c-0.3,1.3-0.7,3.2-0.8,5c-0.3,3.7-0.4,7.3-0.5,6.9l-0.7-5.1c0.8-4,1.5-6.2,1.9-7.6c0.4-1.4,0.7-2.1,1-2.8      c0.3-0.7,0.6-1.6,1.2-3.4c0.3-0.9,0.7-2.1,1.1-3.6c0.5-1.5,1-3.4,1.8-5.7l-1.2-0.5c0.9-1.4,1.7-3.6,2.3-6c0.7-2.3,1.4-4.8,2-6.9      c0.5-2.1,1.2-3.8,1.6-4.5c0.4-0.7,0.8-0.4,1,1.4c-0.9,1.5-1.7,3.1-2.5,4.7l1.6,0.1l0.8-2.7l0.9-2.6l1.8-5.3      c0.6-1.8,1.3-3.5,2-5.2c0.7-1.7,1.3-3.5,2.1-5.2c0.1,2.4,4.6-7.3,4.7-4c0.4-1.3,0.9-2.6,1.3-3.9l1.4-3.9c1.9-1.1,0.6,2.5-1,6.6      c-1.4,4.1-3.2,8.6-2.6,9.4c1,0.2,2.6-3.2,3.3-4.9c-0.7,2.3-1.7,4.2-2.6,5.9c-0.9,1.7-1.9,3.2-3,4.7c-1.1,1.5-2.2,3-3.2,4.7      c-1,1.7-2.1,3.6-2.9,5.9l-0.2,5l-1.7-0.8c-0.2,1-0.4,1.9-0.5,2.9c-0.1,0.9-0.1,1.8-0.1,2.6c0,1.6,0.2,2.9,0.4,3.7      c-1.3,2.1-2.1,4.4-2.8,6.8c-0.3,1.2-0.6,2.5-0.9,3.8c-0.2,1.3-0.4,2.6-0.5,4c-0.1,1.4-0.3,2.8-0.4,4.3c-0.2,1.5-0.2,3-0.3,4.5      c-0.1,1.6-0.3,3.2-0.5,4.8c-0.1,1.7-0.3,3.4-0.5,5.2c-0.1-6-0.7-4.1-1.3-1c-0.3,1.6-0.7,3.4-0.9,4.8c-0.2,1.4-0.4,2.2-0.5,1.7      c-0.1,1.7,0.1,3.9,0.3,6.5c0.2,2.5,0.7,5.4,1,8.1c0.1,1.4,0.4,2.8,0.5,4.1c0.2,1.3,0.3,2.6,0.4,3.8c0.1,2.4,0.1,4.5-0.3,5.9      c-0.5,3.9-2.3-7.9-1.7,1.3c0.5,3,1.1,5.4,1.7,6.7c0.6,1.2,1.1,1.2,1.2-0.8c1.3,6.5,2.7,13.6,4.6,20.7c0.5,1.8,0.9,3.6,1.5,5.4      c0.6,1.8,1.1,3.5,1.7,5.3c1.1,3.6,2.5,7,3.8,10.3l-2.4-2.8c0.3,1.1,0.6,2.2,1,3.3c0.2,0.5,0.4,1.1,0.6,1.6      c0.2,0.5,0.4,1,0.7,1.5c0.9,2,1.9,3.8,2.9,5.5c0.3,0.4,0.5,0.8,0.8,1.2c0.3,0.4,0.6,0.8,0.8,1.1c0.5,0.7,1.1,1.4,1.6,2.1      c1,1.3,2,2.4,2.9,3.3c0.1,1.4,0.8,1.8-0.5,0.9c1.9,5.5,4.3,8.5,7.5,11.9c1.6,1.7,3.3,3.6,5.4,5.9c1,1.2,2.1,2.5,3.3,4      c1.2,1.5,2.5,3.1,3.9,5c0.4-1-0.7-3.1-2.4-5.6c-1.6-2.5-3.8-5.3-5.8-7.5c0.8,0.1,1.7,0.1,2.6,0.1c-8.9-13.2-17.1-29.1-22.4-41.1      c1.1,1.7,2.4,3.4,3.5,5c-0.8-5.7-1.9-7.3-3.1-9c-1.2-1.6-2.4-3.2-2.2-8.7c-2.8-7.3,0.5,5.7-1.9,0.3c-0.4-2.7,0.5-2.6,1.3-2.9      c0.8-0.3,1.3-1,0.4-5.5c0.3,1,0.5,2.1,0.8,3.1c0.3,1,0.6,2.1,0.9,3.1c0.6,2.1,1.2,4.2,1.9,6.2c0.7,2.1,1.5,4.1,2.2,6.2l0.5,1.6      l0.6,1.5c0.4,1,0.8,2.1,1.3,3.1c0.4,1,0.8,2.1,1.3,3.1c0.4,1,0.9,2,1.4,3.1c1,2,1.8,4.1,2.9,6.2c1,2,2.1,4,3.1,6.1      c1,2,2.3,4,3.4,6c0.6,1,1.1,2,1.7,3l1.9,2.9c1.3,1.9,2.4,3.9,3.8,5.7l4,5.6c1.4,1.8,2.8,3.6,4.2,5.4c5.8,7.1,12,13.6,18.5,19.6      c0.7,0.2-0.5-1.2-1.7-2.6c0.7,0.4,1.5,1.1,2.6,1.9c1.1,0.8,2.4,1.9,3.9,3.1c0.7,0.6,1.5,1.3,2.3,2c0.8,0.7,1.7,1.4,2.6,2.1      c1.9,1.5,3.8,3.2,6,4.8c8.6,6.7,20,14.1,31.9,19.9c11.9,5.9,24.4,9.7,34.1,11.6c2.4,0.4,4.7,0.8,6.7,1c2,0.2,3.8,0.3,5.3,0.3      c1.5,0,2.7,0,3.7-0.2c0.9-0.2,1.5-0.4,1.7-0.7c1.7,0.9-4.1,1.4,3.4,1.8c0.7-0.3,2.6-0.7,0.9-1.6c9.3,2,20.5,1.7,31.9-0.3      c1.4-0.2,2.8-0.5,4.3-0.7c1.4-0.3,2.8-0.6,4.3-1c1.4-0.3,2.9-0.6,4.3-1l4.2-1.2c1.4-0.4,2.8-0.7,4.2-1.1      c1.4-0.4,2.8-0.9,4.2-1.3c1.4-0.4,2.8-0.8,4.2-1.2c1.4-0.5,2.8-0.9,4.1-1.3c-0.8-0.7,3.7-3,3.5-3.6c2-0.3,4.2-1,6.5-1.9      c0.6-0.2,1.2-0.5,1.7-0.7c0.6-0.3,1.1-0.6,1.7-0.9c1.2-0.6,2.3-1.2,3.5-1.8c2.3-1.2,4.5-2.6,6.6-3.8c1-0.6,2.1-1.1,3-1.6      c1-0.5,1.9-1,2.7-1.3l-2.5,0.3l4.9-3l2.4-1.5l2.4-1.6c1.6-1.1,3.2-2.1,4.7-3.2l4.6-3.4c0.3-0.7-2.2,1.1-3.7,2.1      c3.7-3.4,5.3-3.1,6.3-2.7l3.2-4.1c1.1-1.4,2.1-2.7,3.1-4.2c1.5-1.1,3.1-2.2,4.6-3.3c1.5-1.2,3-2.5,4.4-3.8      c0.7-0.7,1.5-1.3,2.2-2c0.7-0.7,1.4-1.4,2.1-2.1c1.4-1.5,2.8-2.9,4.2-4.5c5.4-6.2,10.3-13.2,14.7-20.7      c4.4-7.4,8.2-15.3,11.6-23.4l1.3-3l1.2-3l1.2-3l0.6-1.5l0.5-1.5c0.7-2,1.5-4.1,2.3-6.1c0.7-2,1.4-4.1,2.1-6.1      c-0.4-5.4-0.1-9.8,1.2-18.2c-0.4,1.3-0.9,2.7-1.3,4c0.1-4.4,0.3-4.5,0.6-4.4c0.3,0.1,0.7,0.4,0.9-3.3c-0.2-2.5-0.8-3-1.4-2      c-0.6,1-1,3.5-1.1,6.9c-1.4,4-1.5,1.3-1.4-1.6c2.2-13,3.2-25.8,3.3-38.1C361.8,165.5,361.1,153.7,360,142.6z"
   id="path86"
   style="fill:#ffffff" />
				<path
   class="st1"
   d="M343.9,117.6c-0.2-1.4,1.1,1,2.4,2.9c0.7,1,1.2,1.8,1.5,2c0.3,0.2,0.5-0.3,0.3-2.1      c-2.8-10.7-10-23.7-19.6-35.4c-4.8-5.9-10.2-11.4-15.6-16.6c-1.4-1.3-2.8-2.5-4.1-3.7c-0.7-0.6-1.3-1.2-2-1.9      c-0.7-0.6-1.4-1.2-2.1-1.8c-1.4-1.2-2.7-2.3-4-3.5c-1.4-1.1-2.7-2.2-3.9-3.3c-1.3-1.3-2.3-2.4-3.3-3.2c-1-0.9-1.8-1.6-2.7-2.3      c-0.9-0.7-1.7-1.4-2.7-2.1c-1-0.7-2.1-1.5-3.4-2.4c-0.3,0.2-0.4,0.5-0.3,1c-1.6-0.9-3.4-2-5.5-2.9c-2-1-4.2-2.1-6.4-3.1      c-2.2-1-4.4-2-6.4-2.9c-2.1-0.9-4-1.8-5.6-2.6c-2.1-0.4-4,0.4-0.2,1.5c-2.7-0.8-5.1-1.5-7.4-2.4c-1.1-0.4-2.2-1-3.2-1.4      c-1-0.4-2-0.9-3-1.3c-3.8-1.9-7.2-3.3-10.4-3.4c5.1,2.1-5.5,0.1,0.6,2.3c-2.8-0.7-4.9-1.2-6.4-2c-1.6-0.7-2.7-1.6-3.8-2.4      c-2.1-1.6-4-3.3-8.7-4.1c-0.6,0.3-1.2,0.7,0.7,1c-2.5-0.8-5.7-1.2-9.2-1.5c-1.7-0.1-3.5-0.1-5.3-0.2c-0.9,0-1.8,0-2.6,0      c-0.9,0-1.7,0.1-2.6,0.1c-6.8,0.1-12.3,0.6-13-1.1l-2,0.9l-2,1c-2.3-0.3-3.2-0.7-4.5-0.9c-0.6-0.1-1.4-0.2-2.4-0.3      c-1,0-2.4,0.1-4.3,0.3c-4.8,1.3,0.4,1.2-1.3,2.1c-0.6-0.3-1.8-0.3-3.5-0.2c-1.6,0.2-3.7,0.5-5.8,0.8c-2.2,0.3-4.4,0.8-6.5,1.1      c-2.1,0.3-4.1,0.5-5.7,0.5c-0.5-1,2.4-1.1,5.9-1.2c3.6-0.3,7.9-0.3,10.7-1.9c0.1-0.5-0.8-0.4-2-0.2c15.6-3.1,29.8-2.2,42.8-0.4      c13,1.9,24.9,4.7,37.4,7c2.5,1.5,4.8,2.2,6.9,2.4c1.1,0.1,2,0.1,2.9,0.1c0.9,0,1.7-0.2,2.4-0.3c-1-0.5-2.6-1.3-4.3-2      c-1.8-0.7-3.8-1.4-5.6-2c-0.5-0.1-0.9-0.3-1.4-0.4c-0.5-0.1-0.9-0.2-1.3-0.3c-0.9-0.1-1.7-0.2-2.4-0.3c-1.4,0-2.4,0.2-2.6,1      c-2.4-1.3-5-2.3-7.5-3.5c-3-0.4-2.5-3.5-3.7-4.1c1.4,0.2,2.9,0.4,4.2,0.4c1.3,0,2.5-0.2,3.3-0.5c1.5-0.6,1.4-1.6-2.4-2.9      c7.7,1.2,6.1,2.6,4.4,3.9c-0.9,0.6-1.8,1.3-1.6,1.8c0.1,0.6,1.3,1,4.6,1.6l2.4-1.7c-1.4,0.3,0.7,1.3,3.7,2.4      c2.9,1.2,6.7,2.2,8.9,2.6c-0.5-0.3-1-0.7-1.6-1c8.5,2.9,17.5,6.5,26.5,10.9c9.1,4.5,18.2,9.8,26.8,16      c8.7,6.2,16.9,13.3,24.2,20.9c7.4,7.6,13.8,15.9,19.2,24.2c0.1,2.8,1.2,5.6,2.6,8.6c0.7,1.5,1.6,3,2.5,4.5      c0.8,1.5,1.7,3.1,2.6,4.6c0.4,0.8,0.9,1.6,1.3,2.3c0.4,0.8,0.8,1.6,1.2,2.4c0.8,1.6,1.5,3.1,2.1,4.6c0.6,1.5,1,3,1.2,4.4      c0.2,1.4,0.3,2.8,0.1,4c1,1.9,1,0.3,1.1-0.8c0.1-1.1,0.4-1.8,2,2.1c1.4,4,0.1,4.7-0.3,4.6c0.5,1.2,0.9,2.4,1.4,3.6      c-2.2,2.1-4.9,1.6-8.4-2.2c-0.9-1-1.8-2.1-2.7-3.5c-1-1.3-2.1-2.9-3.3-4.7c-0.6-0.9-1.1-1.8-1.8-2.8c-0.7-1-1.3-2-2-3.1      c-0.7-1.1-1.4-2.2-2.2-3.4C345.6,120.1,344.7,118.8,343.9,117.6z"
   id="path88"
   style="fill:#ffffff" />
			</g>
		</g>
	</g>
</g>
<g
   id="g110"
   style="fill:#ffffff">
	<g
   id="g108"
   style="fill:#ffffff">
		<path
   class="st3"
   d="M72.7,241.9c-6.6,0-12.8-0.3-18.4-0.7c-0.7-0.1-1.3-0.8-1.3-1.7v-95.3c0-0.9,0.6-1.6,1.3-1.7    c7.5-1,15.1-1.5,22.5-1.5c17.3,0,29.8,4,38.1,12.2c8.8,8.6,13,20.2,13,35.7c0,16.3-4.6,29.8-13.4,38.9    C105.7,237,91.2,241.9,72.7,241.9z M77.3,143.8c-4,0-7.7,0.2-11.1,0.6c-4.7,0.6-8.2,4.8-8.2,9.7v74.7c0,5.1,3.9,9.4,8.8,9.7    c2.3,0.1,5,0.2,8.4,0.2c29.9,0,47-18,47-49.5c0.1-14.1-4-25.7-11.8-33.6C102.7,147.8,91.5,143.8,77.3,143.8z"
   id="path98"
   style="fill:#ffffff" />
		<g
   id="g102"
   style="fill:#ffffff">
			<path
   d="M60.2,183.8c0.2,12.4,0.2,26.2,0.1,40l0,5.1c0,0.7,0.1,1.3,0.3,2c0.2,0.6,0.4,1.3,0.8,1.8c0.7,1.1,1.7,2.1,2.8,2.7     c0.6,0.3,1.2,0.5,1.8,0.7c0.3,0.1,0.6,0.1,0.9,0.1c0.4,0,0.8,0,1.2,0c1.7,0,3.3,0.1,4.9,0.1c0.8,0,1.6,0.1,2.4,0     c0.8,0,1.6-0.1,2.4-0.1c0.8,0,1.6-0.1,2.4-0.1c0.8-0.1,1.5-0.2,2.3-0.3c1.5-0.2,3.1-0.4,4.5-0.8c0.9-0.2,1.8-0.4,2.6-0.6     c0.9-0.2,1.7-0.6,2.6-0.8l1.3-0.4c0.4-0.1,0.9-0.3,1.3-0.5l2.5-1.1c0.8-0.3,1.6-0.8,2.4-1.3c0.8-0.5,1.6-0.9,2.3-1.4l2.2-1.6     c0.4-0.3,0.7-0.5,1.1-0.8l1-0.9c0.6-0.6,1.3-1.2,1.9-1.9l1.7-2.1c0.3-0.4,0.6-0.7,0.9-1.1l0.7-1.1l1.5-2.3l1.2-2.4l0.6-1.2     c0.2-0.4,0.3-0.9,0.5-1.3l1-2.6c0.3-0.9,0.5-1.8,0.8-2.7c2-7.1,2.5-14.8,2.2-22.3c-0.5-7.4-2.3-14.6-5.8-20.6     c0.2-0.1,1.7,1.8,0.6-0.3c-1.1-2.1-2.1-3.6-2.9-4.6c-0.8-1.1-1.3-1.8-1.7-2.3c-0.7-1-0.6-1.1-0.4-1.3c0,0,0.4,0.3,0.9,0.7     c0.4,0.5,1,1.1,1.5,1.7c1,1.2,1.7,2.1,1.1,1.1c1.1,1.5,2.4,3.2,3.4,5.1c1,1.8,1.9,3.6,2.4,5.1c0.6,1.4,0.9,2.5,1,2.7     c0.1,0.2,0-0.4-0.6-2.2c-0.3-1.2-1.5-4.1-3.1-6.8c-1.5-2.7-3.5-5.1-4.3-6.2c-1.5-2.1,2.2,1.4,0.8-0.7c-0.9-1-2.2-2.3-3.7-3.6     c-0.7-0.6-1.5-1.2-2.2-1.7c-0.7-0.5-1.4-1-2-1.3c-1.1-0.7-0.4-0.6,0.2-0.4c0.6,0.2,1.2,0.5,0.1-0.2c-1.6-1.1-3.5-2.1-5.6-3     c-2.1-0.9-4.3-1.6-6.7-2.2c-2.4-0.6-4.8-1-7.4-1.3c-2.5-0.3-5.1-0.4-7.7-0.4c0-0.1-0.6-0.2-0.6-0.3c0-0.1,0.6-0.2,3.2-0.2     c5.7,0.2,11.4,1,16.9,2.9c5.5,1.9,10.7,4.9,14.9,9c4.3,4.1,7.5,9.3,9.5,14.7c2.1,5.5,3.1,11.2,3.4,17c0.1,1.4,0.1,2.9,0.1,4.3     l-0.1,4.3c0,1.4-0.2,2.9-0.3,4.3c-0.2,1.4-0.3,2.9-0.6,4.3c-0.9,5.7-2.7,11.4-5.6,16.5c-2.8,5.2-6.8,9.9-11.5,13.4     c-4.8,3.6-10.3,6-16,7.5c-5.7,1.5-11.6,1.8-17.3,1.8l-4.3-0.1l-2.1-0.1c-0.3,0-0.8-0.1-1.3-0.1c-0.5,0-0.9-0.2-1.3-0.3     c-3.5-0.9-6.5-3.5-8-6.8c-0.8-1.6-1.2-3.4-1.2-5.2l0-4.2l0-8.3c0-5.5,0-11.1,0-16.6c0-11.1,0-22.1,0-33.2c0-2.8,0-5.5,0-8.3     l0-4.1c0-1.7,0.3-3.5,1-5.1c1.3-3.3,4.1-5.9,7.6-7c0.4-0.1,0.9-0.3,1.3-0.3c0.4-0.1,0.9-0.2,1.2-0.2c0.7-0.1,1.4-0.2,2.1-0.2     c1.4-0.1,2.8-0.2,4.2-0.3c5.2-0.1,5.8,0.1,4.2,0.3c-1.6,0.2-5.4,0.4-9.3,1c2.5-0.4,2.6,0,5.1-0.3c0,0.2-1.3,0.4-3.8,0.8     c-0.6,0.1-1.3,0.2-2.1,0.4c-0.7,0.1-1.7,0.3-2.7,0.7c-1.9,0.7-3.9,2.2-5.3,4.6c1.4-2.3,3.7-4.1,6.3-4.7c2.7-0.3,0,0.3,0.1,0.6     c-1.2,0.3-2.4,0.9-3.2,1.4c-0.8,0.6-1.2,1.1-1.2,1.1c0.1,0.1,0.2,0.2,0.3,0.3c0.8-0.8,2.4-1.9,4.1-2.3c1.8-0.3,3.7-0.5,4.9-0.6     c-1.2,0.1-2.5,0.2-3.4,0.3c-0.9,0.1-1.5,0.3-1.5,0.3c0,0.1,0.1,0.3,0.1,0.4c-1.1,0.3-2.2,0.8-3.3,1.6c-1,0.8-1.9,2-2.5,3.3     c-0.3,0.6-0.5,1.3-0.6,2c-0.1,0.7-0.2,1.3-0.2,2.1c0,1.5,0,2.9,0,4.2h0.3c0-1.3,0-2.7,0-4.2c0-0.4,0-0.7,0-1c0-0.3,0.1-0.7,0.1-1     c0.1-0.6,0.3-1.3,0.6-1.9c0.5-1.2,1.4-2.3,2.4-3.2c1-0.8,2.1-1.3,3.1-1.6c-1,0.3-1.5,0.6-1.7,0.8c-0.2,0.2-0.2,0.3-0.1,0.4     c-1.3,0.8-2.4,1.9-3.1,3.3c-0.3,0.7-0.6,1.4-0.8,2.2c-0.2,0.8-0.2,1.5-0.2,2.5c0,3.8,0,7.5,0.1,11.3v-7.5     C60.5,163.8,60,176.3,60.2,183.8z"
   id="path100"
   style="fill:#ffffff" />
		</g>
		<g
   id="g106"
   style="fill:#ffffff">
			<path
   d="M50.9,198.3c-0.2-14-0.2-29.6-0.1-45.3l0-5.9l0-1.5l0-0.7c0-0.4,0-0.9,0-1.3c0.1-0.8,0.4-1.6,0.9-2.3     c0.5-0.6,1.2-1.1,2-1.2l1.2-0.2c0.2,0,0.4-0.1,0.5-0.1l0.4,0l1.5-0.2c1-0.1,2-0.2,2.9-0.3c1.9-0.2,3.9-0.3,5.8-0.5     c3.9-0.2,7.7-0.4,11.5-0.4c3.8,0,7.5,0.2,11.1,0.6c4.4,0.5,8.8,1.4,13.1,2.9c2.1,0.8,4.3,1.7,6.3,2.8c2.1,1.1,4,2.4,5.9,3.9     c1.9,1.5,3.5,3.1,5.1,4.9c1.6,1.7,3,3.7,4.2,5.6c2.5,4,4.3,8.4,5.5,12.9c1.1,4.5,1.7,9.1,1.9,13.7c0.1,4.6,0,9.1-0.7,13.7     c-0.6,4.5-1.6,9-3.2,13.3c-0.8,2.2-1.7,4.2-2.7,6.3c-1.1,2-2.2,4-3.6,5.8c-0.2-0.1,1.3-2.8-0.6-0.4c-1.8,2.4-3.4,3.9-4.6,5.1     c-1.2,1.1-2.2,1.8-2.8,2.2c-1.3,0.8-1.4,0.6-1.6,0.4c-0.1-0.1,1.6-1.4,2.9-2.7c1.3-1.3,2.2-2.3,1.2-1.4c1.5-1.6,3.1-3.5,4.4-5.5     c1.3-2,2.5-4.1,3.2-5.7c0.8-1.6,1.2-2.8,1.3-3.1c0.1-0.3-0.2,0.4-1.2,2.3c-0.7,1.2-2.3,4.4-4.4,7.3c-2.1,2.9-4.6,5.4-5.8,6.2     c-1.2,0.8-0.8,0.2-0.3-0.4c0.4-0.6,0.8-1.2-0.3-0.4c-1,0.9-2.6,2.2-4.4,3.4c-1.7,1.2-3.6,2.1-4.8,2.7c-2.6,1,2.2-1.8-0.3-0.6     c-3.7,1.7-8.3,3.2-13.4,4.2c-5.1,1-10.6,1.5-16.2,1.5c0-0.1-0.7-0.2-0.7-0.3c0-0.1,0.7-0.2,3.5-0.3c6-0.2,12.1-0.9,17.8-2.5     c5.7-1.6,11.3-4.1,15.8-7.7c4.5-3.6,8.2-8.5,10.7-13.8c2.6-5.3,4.1-11.2,4.9-17.2c0.7-6,0.8-12.2,0-18.1     c-0.8-6-2.4-11.8-5.4-16.8c-1.5-2.5-3.2-4.9-5.2-7c-2-2.2-4.2-4-6.7-5.6c-4.9-3.1-10.7-4.9-16.6-5.9c-6-1-12.1-1.2-18.3-1     c-3.1,0.1-6.2,0.3-9.3,0.5c-1.5,0.1-3.1,0.3-4.6,0.4l-2.7,0.3c0,11.7,0,23.4,0,35.1c0,12.5,0,25.1,0,37.5c0,6.2,0,12.5,0,18.7     l0,2c0,0,0,0,0,0c0,0,0,0,0,0l0,0l0.3,0l2.3,0.2c3.1,0.2,6.1,0.3,9.2,0.4c5.6,0.1,6.3,0.2,4.6,0.4c-1.8,0.2-6,0.3-10.2,0.3     c2.8,0,2.8,0.3,5.6,0.3c0,0.2-1.4,0.4-4.2,0.5c-1.4,0-3.2,0.1-5.3,0c-0.5,0-1.1,0-1.7-0.1c-0.5,0-1-0.1-1.5-0.1     c-0.5,0.1-0.9-0.3-1.1-0.7c-0.1-0.2-0.1-0.5-0.1-0.7c0-0.3,0-0.6,0-0.9v0.9c0,0.3,0,0.5,0.1,0.8c0.1,0.2,0.3,0.5,0.5,0.6     c0.2,0.1,0.5,0.1,0.8,0.2l1.9,0.1l2.1,0.1c2.8,0.3,0,0.3,0,0.6c-1.4-0.1-2.8-0.2-3.9-0.3c-0.5-0.1-0.9,0-1.2-0.1     c-0.3-0.1-0.4-0.2-0.4-0.2c-0.1,0.1-0.2,0.2-0.3,0.3c0.3,0.3,0.7,0.5,1.2,0.5c0.5,0.1,1.1,0.1,1.5,0.1c1,0.1,2,0.1,3.1,0.2     c2.1,0.1,4.3,0.2,5.7,0.3c-1.4-0.1-2.8-0.1-3.9-0.1c-1.1,0-1.8-0.1-1.8,0c0,0.1,0,0.3,0,0.5c-0.7,0-1.5-0.1-2.3-0.1     c-0.4,0-0.8-0.1-1.2-0.1c-0.6,0-1.1-0.1-1.6-0.2c-1.1-0.2-1.9-1.4-1.9-2.5c0-1.3,0-2,0-2.9c0-3.5,0.1-7.1,0-9.9h-0.3     c-0.1,2.8-0.1,6.4,0,9.9c0,0.9,0,1.6,0,3.1c0.1,1.2,0.9,2.4,2.1,2.7c0.6,0.1,1.2,0.2,1.8,0.2c0.4,0,0.8,0.1,1.2,0.1     c0.8,0.1,1.5,0.1,2.3,0.1c-2.9-0.1-2.9,0-2.9,0.3l-0.9-0.1c-0.4,0-0.8-0.1-1.3-0.2c-0.9,0-1.6-0.6-2-1.2c-1-1.3-0.6-3.5-0.7-4.3     l0-6.4c0-4.3,0-8.5-0.1-12.8v8.5C50.5,221,51,206.9,50.9,198.3z"
   id="path104"
   style="fill:#ffffff" />
		</g>
	</g>
</g>
<g
   id="g118"
   style="fill:#ffffff">
	<g
   id="g116"
   style="fill:#ffffff">
		<g
   id="g114"
   style="fill:#ffffff">
			<path
   d="M205,157.6c0-2.4,0-4.8-0.1-7.2c0-1.2,0-2.4,0-3.7l0-1.9l0-1.4c0-0.6,0.1-1.1,0.3-1.6c0.2-0.5,0.4-0.9,0.7-1.3     c0.3-0.4,0.8-0.7,1.2-0.9c0.4-0.2,1-0.3,1.5-0.2l0.8,0l0.4,0l0.3,0c1.3,0.1,2.7,0.1,4.1,0.2c2.7,0.1,5.5,0.3,8.2,0.4     c5.5,0.3,11.1,0.5,16.8,0.8c2.8,0.1,5.6,0.3,8.5,0.4l2.1,0.1l1.1,0.1l0.5,0l0.3,0c0,0,0.1,0,0.1,0.1c0.6,0.9,0.6,2.8,0.1,3.7     c-0.1,0.1-0.1,0.1-0.2,0.1l-0.2,0l-0.4,0.1l-0.9,0.2l-1.8,0.3c-1.2,0.2-2.4,0.4-3.6,0.6c-1.2,0.2-2.4,0.4-3.6,0.6l-1.8,0.3     l-0.4,0.1l-0.1,0c0,0,0,0-0.1,0l-0.3,0l-0.6,0l-2.5,0c-3.8,0-7.5,0.1-11.3,0.1l-4,0.1c-0.5,0.1-0.8,0.1-1.2,0.2     c-0.4,0.1-0.8,0.1-1.1,0.2l-0.7,0.4l-0.3,0.2l-0.2,0.1l-0.1,0.1c-0.2,0.2-0.4,0.3-0.6,0.5c-0.7,0.7-1.3,1.5-1.7,2.4     c-0.4,0.9-0.6,1.9-0.7,2.9c0,0.4,0,1.2,0,1.8l0,1.9c0,5,0.1,10,0.1,14.8c0,1.4,0,2.9,0,4.3c0,1.2,0.2,2.3,0.7,3.3     c0.9,2,2.7,3.6,4.7,4c0.3,0,0.5,0.1,0.8,0.1l0.4,0c0.1,0,0.4,0,0.5,0l2.2,0c1.5,0,2.9,0,4.4,0c3,0,5.9,0,8.9-0.1c3,0,6,0,8.9,0     l1.1,0l0.3,0l0.1,0l0.1,0c0.2,0,0.4,0,0.5,0.1c1.2,0.3,1.6,0.8,1.9,1.1c0.7,0.8,1,1.6,1.1,2.3c0.1,0.8,0.1,1.5-0.1,2.3     c-0.1,0.4-0.3,0.8-0.5,1.2c-0.3,0.4-0.6,0.8-1.2,1.2c-0.3,0.2-0.7,0.4-1.4,0.5l-0.3,0l-0.2,0l-0.1,0l-0.1,0l-0.6,0l-2.2,0     c-6,0-12,0-18,0.1l-4.5,0c-0.4,0-0.8,0-1.1,0c-0.3,0-0.5,0-0.8,0.1c-0.5,0.1-1,0.2-1.5,0.4c-0.9,0.4-1.8,1.1-2.4,1.9     c-0.7,0.8-1.1,1.9-1.3,2.9c-0.1,0.5-0.2,1.1-0.2,1.6l0,2.2l0,4.5c0,3,0,6,0,8.9c0,3,0,5.9,0,8.9l0,2.2c0,0.4,0,0.7,0,0.9     c0,0.3,0.1,0.5,0.1,0.8c0.2,1.1,0.6,2.1,1.2,2.9c0.3,0.4,0.7,0.8,1,1.2l0.3,0.2l0.1,0.1c0,0,0,0,0.1,0.1l0.2,0.1     c0.6,0.3,0.9,0.7,2.1,0.8c0.5,0.1,1,0.2,1.6,0.2l2.6,0l6.7,0l8.1,0l3.4,0l1.7,0l0.2,0c0,0,0,0,0,0l0,0l0,0c1,0.3,2,0.5,3.1,0.8     c-0.7,0.1-2,0.1-3,0.2c-1.1,0.1-1.9,0.2-1.2,0.3c2.9,0.6,4.5,0.9,5,1.1c0.6,0.2,0.1,0.2-0.6,0.2c-0.3,0-2.7,0-4.7-0.1     c-2-0.1-3.6-0.1-2.5,0c-5.8-0.1-13.6-0.3-18.4-0.4c-1.4-0.1-2.5-0.2-3.3-0.4c-0.2,0-0.4-0.1-0.6-0.1c-0.2-0.1-0.3-0.1-0.4-0.2     c-0.3-0.1-0.6-0.2-0.7-0.3c-0.8-0.4-1.1-0.7-1.3-0.8c-0.1-0.1-0.1,0,0.3,0.4c0.2,0.2,0.6,0.4,1,0.7c0.3,0.1,0.6,0.2,0.9,0.4     c0.4,0.1,0.8,0.2,1.3,0.3c0.3,0.1,0.7,0.2,1.2,0.2c0.5,0,1,0.1,1.5,0.2c0.3,0,0.5,0,0.8,0c0.2,0,0.4,0,0.6,0c0.4,0,0.8,0,1.3,0     c1.9,0,4.1,0,6.4,0.1c2.2,0,4.4,0,6.3,0.1c0.9,0,1.7,0,2.4,0c0.3,0,0.6,0,0.9,0c0.1,0,0.2,0,0.3,0c0,0,0.1,0,0.1,0     c0.2,0-2.5,0.1-4.8,0.1c-2.4,0-4.5,0.1-4.8,0.1c1.2,0,3,0,4.8,0c0.5,0,0.9,0,1.3,0c0.5-0.1,0.8,0.4,0.9,0.7     c0.1,0.4,0,0.8-0.1,1.1c-0.1,0.2-0.2,0.3-0.4,0.4c-0.2,0-0.3,0-0.5,0c-2.7-0.1-4.2-0.3-5.5-0.4c-0.3,0-0.7-0.1-0.9-0.1     c-0.3-0.1-0.6-0.1-0.9-0.2c-0.6-0.1-1,0.1-1.4,0c-4.2-0.1-7.1-0.1-10.2-0.1c-3.1,0-6.3,0-9.6,0c0-0.1-1-0.2-1-0.3     c0,0,0.2-0.1,1-0.1c0.2,0,0.5-0.1,1-0.1c2.1,0,4.1,0,6.2,0l2.8,0c0.1,0,0.3,0,0.3,0c0,0,0-0.1,0-0.2c0-0.1-0.1-0.3-0.3-0.2     l-0.9,0c-1.2,0-2.2,0-3,0c-0.1,0-0.1,0-0.2,0c0,0,0,0-0.1,0l0,0l-0.1-0.1l-0.1-0.1l-0.4-0.3c-0.3-0.2-0.5-0.4-0.8-0.7     c-0.5-0.5-0.9-1-1.4-1.5c-1.6-2.1-2.5-4.8-2.6-7.4c0-4.3,0-8.5,0-12.8c0-4.2,0-8.5,0-12.8l0-1.6l0-0.4l0-0.5c0-0.3,0-0.7,0.1-1     c0.1-1.3,0.5-2.6,1.1-3.9c1.1-2.4,3-4.6,5.5-5.8c1.2-0.6,2.6-1,4-1.1l1-0.1l0.8,0l1.6,0l6.4,0l12.8,0l3.2,0l1.6,0l0.1,0     c0,4.7,0,1.2,0,2.3c0-0.1-0.1-0.2-0.1-0.3c-0.1-0.2-0.3-0.4-0.5-0.5c-0.3-0.3-0.5-0.3-0.6-0.4c-0.1,0-0.1,0-0.2,0l-0.1,0l-0.1,0     l0.1,0c0.1,0,0.3,0,0.4-0.1c0.2-0.1,0.4-0.2,0.8-0.6c0.2-0.2,0.3-0.4,0.3-0.6c0-2.1,0,2.8,0,2.3l-0.1,0l-0.2,0l-3.2,0l-12.8,0     l-6.4,0l-3.2,0c-0.3,0-0.5,0-0.9,0c-0.4,0-0.7,0-1.1-0.1l-1.1-0.2c-0.3-0.1-0.7-0.2-1-0.3c-2.7-0.9-5-2.7-6.5-5     c-0.7-1.2-1.3-2.4-1.6-3.7c-0.2-0.7-0.3-1.3-0.4-2l-0.1-1c0-0.4,0-0.6,0-0.8l0-12.8l0-6.4l0-1.6c0-0.5,0-1,0-1.8     c0.1-1.3,0.3-2.7,0.8-4c0.5-1.3,1.2-2.5,2.1-3.5c0.4-0.5,0.9-1,1.4-1.5l0.8-0.6l0.2-0.1c0,0,0,0,0,0l-0.1,0l-0.2,0c0,0,0,0,0,0     c0,0,0,0,0,0c0,0,0,0-0.1,0l-0.6,0l-2.2,0l-0.5,0c0,0,0,0,0,0c0,0,0,0,0,0l0,1.2c0,4.2,0,8.5,0,12.7c0,8.5,0,17,0,25.4     c0,16.9-0.1,33.8-0.1,50.6c0,1.9,0,3.4-0.1,4.6l0,0.1l0,0.1l0,0c0.1,0-0.1,0-0.1,0l0,0l0,0l-0.1,0c-0.1,0-0.1,0-0.2,0     c-0.1,0-0.3,0.1-0.4,0.2c-0.2,0.1-0.4,0.3-0.6,0.5c-0.1,0.1-0.2,0.2-0.2,0.3c0,0.1,0,0.1,0,0.2l0,0.1l0,0l0,0l0,0l0,0     c0-4.5,0-1.2,0-2.3c0.5,0,0.6,0.1,0.5,0.1c-0.1,0-0.2,0-0.4,0.1l-0.1,0l0,0c0-1.9,0,2.5,0,2.1l0,0l0,0l0,0l0,0     c0-0.1,0-0.2,0.1-0.3c0.1-0.2,0.3-0.4,0.5-0.6c0.3-0.3,0.7-0.4,0.7-0.4c0,0,0,0,0,0c0,0,0,0,0,0l0-0.2c0-0.2,0-0.5,0-0.7     c0-1-0.1-2.1-0.1-3.3c-0.1-2.5-0.2-5.3-0.3-8.2c0.1,3.8-0.2,3.8-0.1,7.7c-0.2,0-0.4-1.9-0.6-5.8c-0.2-3.8-0.4-9.6-0.4-17.3     c0,3.8,0,7.7,0,11.5c-0.1,3.8-0.3,0-0.6,0c0-1.9,0-3.8,0-5.3c0-1.4,0-2.4-0.1-2.4c-0.1,0-0.3,0-0.5,0c0,3.8,0,11.5,0,15.4     c0-1.9,0-3.8,0-5.3c0-1.4,0-2.4-0.1-2.4c-0.1,0-0.3,0-0.5,0c-0.1-7.7,0.1-19.2,0-26.9h-0.3c-0.1,7.7,0,19.2,0,26.9     c-0.1-3.8-0.2-3.8-0.5-3.8c-0.1-11.5,0.2-23.1-0.1-34.6c0,3.8,0,7.7,0,11.5C204.7,188.3,205.2,169.1,205,157.6z"
   id="path112"
   style="fill:#ffffff" />
		</g>
	</g>
</g>
<g
   id="g126"
   style="fill:#ffffff">
	<g
   id="g124"
   style="fill:#ffffff">
		<g
   id="g122"
   style="fill:#ffffff">
			<path
   d="M289,155.4c6,11.7,12.4,24,18.9,36.6c3.3,6.3,6.4,12.9,9.4,19.6c1.5,3.3,2.9,6.7,4.3,10.1c0.7,1.7,1.4,3.4,2,5.1l1,2.6     l3-1.8l-0.3-4.2l-0.3-5.5c-0.2-3.7-0.3-7.4-0.4-11.1c-0.2-7.4-0.3-14.7-0.3-21.9c0-14.5-0.1-28.6-0.1-42c0-0.5,0.1-1,0.4-1.5     c0.1-0.3,0.2-0.5,0.4-0.8c0.1-0.1,0.2-0.3,0.4-0.5c0.1-0.1,0.2-0.2,0.3-0.3c0.1-0.1,0.2-0.1,0.3-0.2c0.1-0.1,0.3-0.2,0.5-0.2     l0.4-0.2l0.5,0c0.4,0,0.8,0,1.2,0l0.5,0l0.5,0.2c0.2,0.1,0.5,0.3,0.5,0.3c0.1,0.1,0.2,0.1,0.2,0.2c0.1,0.1,0.2,0.2,0.2,0.3     c0.1,0.2,0.2,0.3,0.3,0.4c0.2,0.2,0.3,0.5,0.4,0.7c0.2,0.5,0.3,0.9,0.4,1.4c0,0.2,0,0.5,0,0.7l0,0.4l0,0.8l0,3.1     c0,2.1,0,4.1,0,6.2c0,4.2,0,8.3,0.1,12.5c0,8.4,0.1,16.8,0.1,25.3c0,8.5,0.1,17,0.1,25.6c0,4.3,0,8.5,0,12.8l0,6.4l0,1.6     c0,0.3,0.1,1.7-0.2,2.6c-0.1,0.5-0.3,1-0.6,1.4c-0.1,0.2-0.3,0.4-0.5,0.6c-0.1,0.1-0.2,0.2-0.3,0.2l-0.4,0l-3.1,0l-3.1,0l-0.8,0     c-0.2,0-0.5,0.1-0.7-0.2c-0.4-0.4-0.7-0.8-0.9-1.3l-1.5-3l-2.9-5.7c-1.9-3.8-3.9-7.6-5.8-11.4c-3.9-7.6-7.7-15.2-11.6-22.8     c-3.8-7.5-7.7-15.1-11.3-22.7c-1.8-3.8-3.5-7.6-5.2-11.5c-0.8-1.9-1.6-3.9-2.4-5.8l-1.1-2.9l-1-2.6c0.1,0,0-0.2,0.3,0.3     c0.2,0.4,0.5,0.8,0.6,1.2c0.2,0.3,0.3,0.4,0.3,0.2c0-0.1-0.1-0.4-0.2-0.7c-0.1-0.3-0.2-0.7-0.4-1.2c-0.1-0.3-0.1-0.5-0.2-0.7     c-0.2,0.1-0.4,0.1-0.5,0.2l-0.1,0l-0.2,0.1c-0.3,0.1-0.6,0.2-0.9,0.3c-0.3,0.1-0.6,0.2-0.8,0.3l-0.4,0.2l-0.1,0     c-0.2,0.1-0.3,0.1-0.5,0.2c0,0.1,0,0.2,0,0.4l0,0.2c0,0.1,0,0.1,0,0.3c0,0.7,0,1.3,0,1.9c0,1.2,0,2.2,0,3.1     c0,1.7-0.1,2.9-0.1,3.7c-0.1,1.6-0.3,1.6-0.5,1.6c-0.1,0-0.1-1-0.2-2.5c-0.1-1.5-0.2-3.4-0.2-5.1c-0.1-1.6-0.2-3-0.2-3.7     c0-0.6-0.1-0.6-0.1,0.4c0-0.3,0-0.6,0-0.9c1.8-0.8,3.8-1.6,5.8-2.4c0.6,1.6,1.3,3.3,1.9,4.9c0.7,1.8,1.4,3.6,2.2,5.3     c1.4,3.4,2.7,6.3,3.7,8.4c2,4.2,2.4,4.9-0.4-1.5c-0.6-1.5-1.7-4.1-3-7.3c-0.7-1.6-1.3-3.3-2-5.1c-0.7-1.7-1.3-3.5-2-5.3     c-2.3,0.9-4.6,1.9-6.6,2.7c0,1.4,0.1,2.8,0.1,3.9c0,1.1,0,2.1,0,2.8c-0.1,5.6-0.9-5.5-1,0c0.3,5.6,0.6,16.7,0.6,22.2     c-0.2,5.5-0.8-5.5-0.7,0c0,8.2,0,17.7,0,27.9c0,5.1,0,10.4,0,15.7c0,2.7,0,5.4,0,8.1c0,1.4,0,2.7,0,4.1l0,2c0,0.3,0,0.3,0,0.4     c0,0,0,0.1,0,0.1l0.2,0.1c0.1,0.1,0.2,0.1,0.3,0.2c0.2,0.2,0.5,0.5,0.7,0.8l0.1-1.7l-1.2,0c0-0.2-3.8-0.4,1.2-0.5l-0.1,2.2     c-0.2-0.4-0.7-0.8-0.9-1c-0.3-0.2-0.5-0.3-0.7-0.4c-0.1,0,0-0.1,0-0.1c0-0.7,0-1.5,0-2.4c0-14,0-28.1-0.1-42.2     c0-7-0.1-14.1-0.3-21.1c-0.1-3.5-0.2-7-0.3-10.6l-0.2-5.3l-0.3-7.1c3.6-1.5,7.2-3,10.9-4.5l3.2,8.4c0.8,2,1.6,3.9,2.4,5.9     c1.6,3.9,3.4,7.8,5.2,11.6c3.6,7.7,7.5,15.2,11.3,22.9c3.9,7.6,7.7,15.2,11.6,22.9l5.8,11.4l2.9,5.7l1.5,2.9l0.5,1.1     c0,0,0,0,0.1,0l0.2,0c0,0,0,0,0-0.1l0-0.8l0-6.4l0-12.9c0-8.6,0-17.1,0-25.7l0-25.7l0-12.9l0-6.4l0-3.2l0-1.3c0,0,0,0,0,0     c0,0,0.1,0,0.2-0.1c0.1,0,0.3-0.1,0.6-0.3c0.2-0.1,0.3-0.2,0.6-0.4c0.2-0.2,0.6-0.5,0.8-0.8l0,2.7l-1.2,0l0.1-2.7     c0.2,0.4,0.6,0.8,0.9,1c0.3,0.2,0.4,0.3,0.6,0.4c0.3,0.1,0.4,0.2,0.6,0.2l0,0.8l0,2.7l0,5.5l0,10.9l0,21.8     c0,7.3,0.1,14.5,0.3,21.8c0.1,3.6,0.3,7.2,0.5,10.8l0.3,5.4l0.5,7.2c-3.6,2.2-7.3,4.5-10.9,6.7l-3.5-9.2c-0.8-2-1.5-3.9-2.3-5.9     c-1.6-3.9-3.3-7.8-5-11.6c-3.5-7.7-7.4-15.2-11.3-22.8c-7.4-14.4-14.7-28.7-22-43l0,0l-0.7,0l-0.6,0l0,0c0,0,0,0,0,0l0,4.5     c0,3.9,0,7.8,0,11.8c0,7.8,0,15.7,0,23.5c0,15.6,0,31.3-0.1,46.8c0,2.8,0,5-0.1,6.6c0,0.4,0,0.8,0,1.1c0,0.1,0,0.3,0,0.4l0,0.1     c0,0,0,0,0,0c-0.1,0-0.2,0.1-0.4,0.2c-0.2,0.1-0.4,0.2-0.7,0.4c-0.1,0.1-0.3,0.2-0.5,0.4c-0.1,0.1-0.2,0.2-0.3,0.3     c0,0-0.1,0.1-0.1,0.1c0,0,0,0,0,0.1l0,0l0,0c2.2-4.5,0.6-1.2,1.1-2.3c0.6,0.3,0.7,0.4,0.5,0.4c-0.1,0-0.3-0.1-0.5-0.2l-0.1,0l0,0     c0.9-1.9-1.3,2.6-1,2.1l0,0l0-0.1c0,0,0.1-0.1,0.1-0.1c0.1-0.1,0.2-0.2,0.2-0.3c0.3-0.3,0.6-0.5,0.8-0.7c0.2-0.1,0.4-0.2,0.5-0.3     c0,0,0,0,0,0c-0.1,0.3-0.1-1.4-0.2-2.7c0-1.4-0.1-3-0.1-4.8c-0.1-3.6-0.2-7.7-0.3-11.9c0.1,5.6-0.2,5.6-0.1,11.1     c-0.2,0-0.4-2.8-0.6-8.3c-0.2-5.6-0.4-13.9-0.4-25c0,5.6,0,11.1,0,16.7c-0.1,5.6-0.3,0-0.6,0c0-2.8,0-5.6,0-7.6c0-1,0-1.9,0-2.5     c0-0.6,0-1-0.1-1c-0.1,0-0.3,0-0.5,0c0,5.6,0,16.7,0,22.2c0-2.8,0-5.6,0-7.6c0-1,0-1.9,0-2.5c0-0.6,0-1-0.1-1c-0.1,0-0.3,0-0.5,0     c-0.1-11.1,0.1-27.8,0-38.9h-0.3c-0.1,11.1,0,27.8,0,38.9c-0.1-5.6-0.2-5.6-0.5-5.6c-0.1-16.7,0.2-33.4-0.1-50     c0,5.6,0,11.1,0,16.7c-0.2-3.9-0.3-9.8-0.3-16.6c0-3.4,0-7,0-10.6c0-0.9,0-1.8,0-2.8l0-1.6c0-0.8,0.1-1.6,0.3-2.3     c0.3-0.7,0.7-1.3,1.3-1.7c0.3-0.1,0.6-0.3,1-0.3c0.2,0,0.4-0.1,0.6-0.1l0.6,0c1.3,0,2.6,0,3.9,0c0.4,0.5,0.9,1,1.1,1.4l0,0l0,0     l0.1-0.1l0.2-0.2l0.4-0.4l0,0l0.2,0.2c0.1,0.1,0.2,0.3,0.3,0.4c0.2,0.3,0.3,0.6,0.5,0.9c0.4,0.8,0.8,1.5,1.1,2.2     c0.7,1.4,1.4,2.7,2,4C286.6,150.7,287.9,153.1,289,155.4z"
   id="path120"
   style="fill:#ffffff" />
		</g>
	</g>
</g>
<g
   id="g132"
   style="fill:#ffffff">
	<g
   id="g130"
   style="fill:#ffffff">
		<path
   class="st4"
   d="M23,106"
   id="path128"
   style="fill:#ffffff" />
	</g>
</g>
<g
   id="g138"
   style="fill:#ffffff">
	<g
   id="g136"
   style="fill:#ffffff">
		<path
   class="st4"
   d="M177.6-6"
   id="path134"
   style="fill:#ffffff" />
	</g>
</g>
<g
   id="g144"
   style="fill:#ffffff">
	<g
   id="g142"
   style="fill:#ffffff">
		<path
   class="st4"
   d="M147.4,25.2"
   id="path140"
   style="fill:#ffffff" />
	</g>
</g>
<g
   id="g150"
   style="fill:#ffffff">
	<g
   id="g148"
   style="fill:#ffffff">
		<path
   class="st4"
   d="M249.7,108.7"
   id="path146"
   style="fill:#ffffff" />
	</g>
</g>
<g
   id="g156"
   style="fill:#ffffff">
	<g
   id="g154"
   style="fill:#ffffff">
		<path
   class="st4"
   d="M247.6,126.5"
   id="path152"
   style="fill:#ffffff" />
	</g>
</g>
<g
   id="g162"
   style="fill:#ffffff">
	<g
   id="g160"
   style="fill:#ffffff">
		<path
   class="st4"
   d="M67.2,63.5"
   id="path158"
   style="fill:#ffffff" />
	</g>
</g>
<g
   id="g168"
   style="fill:#ffffff">
	<g
   id="g166"
   style="fill:#ffffff">
		<path
   class="st4"
   d="M258.9,114.6"
   id="path164"
   style="fill:#ffffff" />
	</g>
</g>
<g
   id="g174"
   style="fill:#ffffff">
	<g
   id="g172"
   style="fill:#ffffff">
		<path
   class="st4"
   d="M277.7,117.3"
   id="path170"
   style="fill:#ffffff" />
	</g>
</g>
<g
   id="g180"
   style="fill:#ffffff">
	<g
   id="g178"
   style="fill:#ffffff">
		<path
   class="st4"
   d="M262.1,31.2"
   id="path176"
   style="fill:#ffffff" />
	</g>
</g>
<g
   id="g186"
   style="fill:#ffffff">
	<g
   id="g184"
   style="fill:#ffffff">
		<path
   class="st4"
   d="M277.7,42.5"
   id="path182"
   style="fill:#ffffff" />
	</g>
</g>
<g
   id="g192"
   style="fill:#ffffff">
	<g
   id="g190"
   style="fill:#ffffff">
		<path
   class="st5"
   d="M136.5,117.5"
   id="path188"
   style="fill:#ffffff" />
	</g>
</g>
<g
   id="g198"
   style="fill:#ffffff">
	<g
   id="g196"
   style="fill:#ffffff">
		<path
   class="st5"
   d="M193.8,117.8"
   id="path194"
   style="fill:#ffffff" />
	</g>
</g>
<g
   id="g204"
   style="fill:#ffffff">
	<g
   id="g202"
   style="fill:#ffffff">
		<path
   d="M93.9,127.3c4.2-0.7,8.1-1.4,11.4-2.3c18.3,0.2,27.3-4.5,46.1-4.5c8.3-0.3,15.5-0.6,22.4-0.5c3.5,0.1,6.9,0.2,10.4,0.6    c3.5,0.4,7.1,1,10.4,2.1c0.4-0.2,0.9-0.2,1.5-0.2c0.7,0.1,1,0,1.5,0.1c0.6,0.1,1.3,0.4,1.6,1.1c0.4,0.7,0.4,1.5,0.3,2.4l-0.1,0.4    l-0.1,0.5c-0.1,0.4-0.2,0.7-0.3,1.1c-0.2,0.7-0.5,1.5-0.7,2.3c-0.6,1.5-1.3,3.1-2.1,4.7c-3.2,6.4-7.2,12.7-9.1,17.4    c-3.9,7-5.4,11.2-1.6,6.4c-3,4.7-4.4,6.2-5.7,7.6c-1.2,1.4-2.3,2.6-4.7,6.6l0.9-3.2c-1.9,2.4-4.3,4.9-6.5,8.2l-1.8,4.3    c-7.3,8.4-9.4,14.6-17,23.9c5.2-5.9-1.7,3.2-0.5,3c-1.4,1.3-5.8,7.1-4.5,4.9c-6.2,8.1-10.2,16.7-14.5,20.9l-1.7,3.4    c-1.5,2.8-3,5.3-4.5,7.7c-1.5,2.4-2.9,4.8-4.1,7.6l0.2,1c-0.3,1.3-0.8,2.9-0.5,4.6c0.1,0.8,0.5,1.7,1.3,2.2    c0.4,0.2,0.8,0.4,1.2,0.5c0.4,0.1,0.9,0.2,1.3,0.3c1.1,0.2,2.1,0.3,3,0.5c0.9,0.1,1.7,0.3,2.3,0.4c10.2,1,23,0.2,33.6-0.2    c10.5,0.4,5.9-0.7,15.4-1c6,0.2,16.4-0.5,20.1,0c-8.3,0.2-9.5,1.2-18.3,1.1c3.4,0.3-14.9,0.5-7,1c8.5-0.5,17.9-0.7,27.2-0.9    c9.3-0.2,18.4-0.5,26.2-1.1c-1.1,1,19.3-0.1,26.1-0.5l0.4,0.2c5.9-0.1,10.2-0.3,19.5-0.9c11.1-0.6,22.1-1.2,31.5-1.4    c6.9-0.2,14.5-0.8,21.1-1.5c3.3-0.3,6.3-0.7,8.9-1.2c1.3-0.2,2.5-0.4,3.5-0.6c0.5-0.1,1-0.2,1.4-0.4c0.2-0.1,0.4-0.1,0.6-0.2    c0.1,0,0.2-0.1,0.3-0.1c0.1,0,0.2-0.1,0.1-0.2c0,0.1-0.1,0.2-0.2,0.2l-0.4,0.1c-0.2,0.1-0.5,0.1-0.7,0.2c-0.5,0.2-1,0.3-1.5,0.3    c-1,0.1-2.1,0.2-3.1,0.3c-2.1,0.2-4.1,0.3-6.1,0.5c-4.1,0.3-8,0.6-11.8,0.9c-7.6,0.5-14.7,0.9-21,0.6c11.7-0.4,12.5-0.7,21.5-1.6    l-4.8,0.1l3.9-0.4c-2-0.1,3.1-0.6,2.5-0.8c-4.7,0.3-9.4,0.5-14,0.7c7.5-0.2,2.6,0.3,0.4,0.7l-7.2,0.3c1.7,0,6.2-0.1,0.9,0.3    c-2.9,0.1-6.8,0.4-10,0.4l5.7-0.8c-8.8,0.8-15.5,0-24.4,0.7l-2.7-0.5l-8.4,0.3l0.9-0.3l-10,0.2c-5.4,0.2-6.2,0.6-7.2,0.8    c-4.2,0.1-8.2,0.3-9.9,0.2l4.8-0.5l-4.5,0c3.1,0.1-3.7,0.3-4.8,0.5c-10,0.1-7.1,0.1-13.4-0.2c-6.5,0.4-14.5-0.1-14.8,0.5    c-11.9-0.3-24.5-0.3-35.8-0.5l-5,0.4c-6.7-0.4-11.5-0.5-16.4-0.6c-2.4-0.1-4.9-0.1-7.6-0.2c-1.3-0.1-2.7-0.1-4.2-0.2    c-0.7-0.1-1.5-0.1-2.3-0.2c-0.6-0.1-1.1-0.1-1.7-0.2c0,0,0.1-0.1,0.1-0.1c0,0,0,0,0-0.1c0.1,0,0.2,0,0.2,0l-0.2,0c0,0,0,0,0,0    l-0.1,0l-0.2,0.1c-0.2,0-0.4,0.1-0.6,0.1c-0.2-0.1-0.4-0.2-0.4-0.4c0.1-0.4,0.2-0.6,0.3-0.9c0.3-0.9,0.7-1.8,1.1-2.6    c0.8-1.7,1.5-3.3,2.4-5c1.7-3.3,3.7-6.7,7.4-11.5c3.8-5.3,6.5-9.2,8.3-12.3c1.9-3.1,2.9-5.5,3.7-7.6c3.3-5.5,8.7-11.4,12.1-16    l-1.9,3.3l3.2-3.5c4.7-6.7,5.3-6.8,11.2-15.8c9.1-11.6,6-11,9-16.6c3-3.6,6-7.3,8.9-11l-0.4,0.1c1.6-3.9,2.3-5.4,3.9-8    c0.8-1.3,1.8-2.9,3.2-5.3c1.4-2.4,3.2-5.5,5.1-10.3l-1.2,0.5c1.6-2.8,2.4-5.1,2.6-7.8c0.1-1.5,0-3-0.5-4.6    c-0.5-1.6-1.7-3.1-3.8-3.9c-0.4-0.2-0.8-0.4-1.3-0.5c-0.6-0.2-1.2-0.5-1.9-0.7c-0.7-0.3-1.6-0.6-2.5-0.9c-1.9-0.6-4.1-1.2-6.4-1.6    c-4.6-0.9-9.7-1.3-13.4-0.9c-7.5-0.8-13.1-0.3-18.4,0.4c-5.3,0.7-10.3,1.5-16.7,1.7c-7.7-0.4-13.1,1.7-14.7,0.1l1.4-0.1l-3-1.6    l-0.3,1.3c-4.7-0.2-11.3,0.7-15.3-0.4l-10.6,3.1c2.6-0.4,5.5-0.5,8.5-0.6l-0.3-0.3c2.8-0.3,9.6-1,12.8-0.7l-3.8,0.7    c4.5,0,0.8,0.8-0.4,1.1c-9,0-6.4,1.1-13.2,1.9c-1.5,0-4.5,0-3.4-0.4c-4,0.6-14.7,0.5-14.9,1.8c-0.4,0-0.5-0.1-0.8-0.1    C83.2,123.8,87.9,125.7,93.9,127.3z"
   id="path200"
   style="fill:#ffffff" />
	</g>
</g>
<g
   id="g210"
   style="fill:#ffffff">
	<g
   id="g208"
   style="fill:#ffffff">
		<path
   class="st5"
   d="M208,261.3"
   id="path206"
   style="fill:#ffffff" />
	</g>
</g>
<g
   id="g216"
   style="fill:#ffffff">
	<g
   id="g214"
   style="fill:#ffffff">
		<path
   class="st5"
   d="M191.5,267.8"
   id="path212"
   style="fill:#ffffff" />
	</g>
</g>
<g
   id="g222"
   style="fill:#ffffff">
	<g
   id="g220"
   style="fill:#ffffff">
		<path
   class="st5"
   d="M190.5,261"
   id="path218"
   style="fill:#ffffff" />
	</g>
</g>
<g
   id="g228"
   style="fill:#ffffff">
	<g
   id="g226"
   style="fill:#ffffff">
		<path
   class="st6"
   d="M171,175.5"
   id="path224"
   style="fill:#ffffff" />
	</g>
</g>
</svg>